<?xml version="1.0" encoding="iso-8859-1"?>
<!-- Uploaded to: SVG Repo, www.svgrepo.com, Generator: SVG Repo Mixer Tools -->
<!DOCTYPE svg PUBLIC "-//W3C//DTD SVG 1.1//EN" "http://www.w3.org/Graphics/SVG/1.1/DTD/svg11.dtd">
<svg fill="#000000" version="1.1" id="Capa_1" xmlns="http://www.w3.org/2000/svg" xmlns:xlink="http://www.w3.org/1999/xlink" 
	 width="800px" height="800px" viewBox="0 0 563.09 563.09"
	 xml:space="preserve">
<g>
	<g>
		<path d="M398.521,420.986v-85.312H1.249l29.823,85.312H398.521z M162.309,368.133h27.369c8.409,0,15.245,6.843,15.245,15.245
			c0,8.403-6.842,15.245-15.245,15.245h-27.369c-8.409,0-15.245-6.842-15.245-15.245
			C147.063,374.976,153.906,368.133,162.309,368.133z M87.804,368.133h27.369c8.409,0,15.245,6.843,15.245,15.245
			c0,8.403-6.842,15.245-15.245,15.245H87.804c-8.409,0-15.245-6.842-15.245-15.245C72.559,374.976,79.395,368.133,87.804,368.133z"
			/>
		<polygon points="563.09,244.247 479.986,244.247 479.152,244.247 479.152,329.553 563.09,329.553 		"/>
		<polygon points="479.152,420.986 533.475,420.986 561.908,335.673 479.152,335.673 		"/>
		<polygon points="398.521,300.655 77.73,300.655 77.816,244.247 0,244.247 0,329.553 398.521,329.553 		"/>
		<polygon points="479.152,238.126 561.682,238.126 524.881,143.156 455.402,143.156 478.498,238.126 		"/>
		<polygon points="85.643,208.934 396.619,209.919 392.561,143.156 38.207,143.156 1.408,238.126 78.397,238.126 		"/>
		<polygon points="404.643,300.655 404.643,329.553 404.643,335.673 404.643,420.986 473.033,420.986 473.033,335.673 
			473.033,329.553 473.033,244.247 404.643,244.247 		"/>
		<polygon points="404.465,238.126 472.195,238.126 449.104,143.156 448.848,142.104 398.627,142.104 398.688,143.156 		"/>
		<path d="M87.804,392.509h27.369c5.03,0,9.125-4.094,9.125-9.125c0-5.03-4.095-9.124-9.125-9.124H87.804
			c-5.031,0-9.125,4.094-9.125,9.124C78.679,388.416,82.773,392.509,87.804,392.509z"/>
		<path d="M162.309,392.509h27.369c5.03,0,9.125-4.094,9.125-9.125c0-5.03-4.095-9.124-9.125-9.124h-27.369
			c-5.031,0-9.125,4.094-9.125,9.124C153.184,388.416,157.278,392.509,162.309,392.509z"/>
		<path d="M200.656,274.443c0.19,0,0.379-0.019,0.704-0.037c-0.062-0.851-0.062-1.646-0.19-2.411
			c-0.257-1.579-1.609-2.717-3.176-2.754c-1.591-0.037-2.993,1.065-3.299,2.668c-0.122,0.655-0.098,1.34-0.159,2.008
			c-0.037,0.404,0.116,0.538,0.52,0.532C196.923,274.437,198.79,274.443,200.656,274.443z"/>
		<path d="M249.867,270.342c-1.83,0.061-3.005,1.254-3.06,3.146c-0.03,1.157-0.006,2.307-0.006,3.464h-0.006
			c0,1.139,0,2.271,0,3.409c0,0.116,0.006,0.232,0.012,0.349c0.11,1.727,1.34,2.919,3.072,2.98c1.702,0.055,3.121-1.096,3.188-2.828
			c0.098-2.534,0.11-5.08,0.012-7.613C253.007,271.401,251.648,270.281,249.867,270.342z"/>
		<path d="M278.607,272.337c-0.11-1.824-1.438-3.109-3.127-3.201c-1.597-0.08-2.95,1.04-3.317,2.791
			c-0.098,0.465-0.135,0.955-0.141,1.432c-0.012,2.405-0.012,4.811-0.006,7.222c0,0.44,0.043,0.887,0.116,1.322
			c0.288,1.652,1.512,2.803,3.011,2.858c1.909,0.073,3.354-1.225,3.464-3.25c0.085-1.518,0.018-3.042,0.018-4.56c0,0,0,0-0.006,0
			C278.625,275.416,278.692,273.874,278.607,272.337z"/>
		<path d="M84.701,238.126l-0.759,3.06l-0.092,0.374v2.687v50.288h314.671v-50.288v-2.95v-0.11l0,0l-0.189-3.06l-1.168-19.137
			l-0.178-2.95l-306.563-0.967L84.701,238.126z M129.487,285.991c-0.189,0-0.392,0-0.6,0c-2.313,0-4.621-0.012-6.934,0.013
			c-0.459,0.006-0.722-0.135-0.967-0.526c-3.599-5.826-7.216-11.646-10.833-17.467c-0.116-0.184-0.239-0.367-0.496-0.514
			c0,6.145,0,12.289,0,18.464c-2.766,0-5.447,0-8.183,0c0-8.905,0-17.785,0-26.708c0.208-0.012,0.398-0.025,0.582-0.025
			c2.368,0,4.737,0.013,7.105-0.012c0.422-0.006,0.643,0.135,0.863,0.49c3.586,5.833,7.191,11.659,10.79,17.485
			c0.123,0.196,0.245,0.386,0.367,0.575c0.049-0.018,0.092-0.03,0.141-0.049c0-6.132,0-12.271,0-18.446c2.729,0,5.417,0,8.152,0
			C129.487,268.133,129.487,277.013,129.487,285.991z M142.198,285.96c-2.65,0-5.275,0-7.944,0c0-5.906,0-11.787,0-17.699
			c2.662,0,5.288,0,7.944,0C142.198,274.167,142.198,280.048,142.198,285.96z M142.198,264.589c-2.656,0-5.288,0-7.962,0
			c0-1.763,0-3.519,0-5.324c2.632,0,5.275,0,7.962,0C142.198,261.058,142.198,262.802,142.198,264.589z M170.136,285.955
			c-2.613,0-5.202,0-7.895,0c0-0.221,0-0.44,0-0.661c0-3.525,0-7.044,0-10.569c0-1.842-1.12-3.274-2.84-3.635
			c-1.86-0.392-3.788,0.502-4.474,2.136c-0.196,0.465-0.263,1.004-0.263,1.512c-0.019,3.507,0,7.007,0.006,10.514
			c0,0.227,0,0.453,0,0.71c-2.663,0-5.251,0-7.895,0c0-5.9,0-11.781,0-17.699c2.607,0,5.196,0,7.889,0c0,0.551,0,1.108,0,1.812
			c0.288-0.232,0.453-0.355,0.606-0.483c3.672-3.084,9.296-2.846,12.607,0.545c1.549,1.585,2.234,3.543,2.271,5.704
			c0.055,3.292,0.019,6.585,0.019,9.877C170.173,285.783,170.154,285.856,170.136,285.955z M182.7,285.936c-2.693,0-5.331,0-8.048,0
			c0-5.894,0-11.787,0-17.729c-1.475,0-2.87,0-4.363,0c0-0.82-0.019-1.604,0.024-2.381c0.006-0.086,0.318-0.22,0.49-0.22
			c1.248-0.019,2.497-0.012,3.843-0.012c0-1.23,0-2.375,0-3.562c2.681,0,5.306,0,8.005,0c0,1.138,0,2.301,0,3.538
			c1.475,0,2.889,0,4.339,0c0,0.912,0,1.744,0,2.625c-1.438,0-2.839,0-4.284,0C182.7,274.125,182.7,280.006,182.7,285.936z
			 M194.591,281.622c0.08,1.303,0.673,2.362,1.922,2.938c1.163,0.532,2.295,0.435,3.335-0.3c1.089-0.771,1.377-1.946,1.444-3.195
			c0.024-0.398,0.006-0.795,0.006-1.23c2.663,0,5.257,0,7.913,0c-0.085,0.245-0.153,0.477-0.25,0.698
			c-1.396,3.023-3.807,4.915-6.922,5.857c-4.474,1.358-8.703,0.777-12.424-2.173c-2.484-1.971-3.776-4.584-3.543-7.815
			c0.171-2.448,1.285-4.455,3.091-6.071c2.76-2.473,6.046-3.434,9.7-3.17c3.495,0.251,6.475,1.604,8.746,4.327
			c1.34,1.597,2.044,3.452,2.111,5.661c-5.08,0-10.074,0-15.08,0c-0.043,0.129-0.092,0.196-0.086,0.27
			C194.555,278.812,194.506,280.22,194.591,281.622z M235.595,285.96c-2.601,0-5.177,0-7.821,0
			c-0.018-0.238-0.049-0.478-0.049-0.716c0-3.465,0-6.934,0-10.398c0-1.818-0.832-3.072-2.387-3.623
			c-1.591-0.569-3.421-0.049-4.486,1.267c-0.502,0.625-0.722,1.34-0.716,2.142c0.012,3.543,0.006,7.087,0.012,10.631
			c0,0.226,0,0.446,0,0.703c-2.668,0-5.257,0-7.895,0c0-5.899,0-11.781,0-17.699c2.613,0,5.202,0,7.882,0c0,0.563,0,1.12,0,1.848
			c0.306-0.251,0.478-0.386,0.643-0.526c3.886-3.25,9.908-2.772,13.036,1.028c1.046,1.273,1.714,2.748,1.763,4.37
			c0.098,3.58,0.061,7.16,0.073,10.741C235.645,285.777,235.62,285.832,235.595,285.96z M260.969,285.942c-2.607,0-5.214,0-7.852,0
			c-0.019-0.281-0.037-0.562-0.055-0.851c-5.508,2.546-10.263,1.867-13.568-3.531c-2.062-3.372-1.622-7.607,1.285-10.863
			c1.554-1.744,3.476-2.846,5.808-3.14c2.301-0.288,4.419,0.3,6.506,1.604c0-1.781,0-3.396,0-5.006c0-1.616,0-3.231,0-4.884
			c2.638,0,5.245,0,7.876,0C260.969,268.151,260.969,277.019,260.969,285.942z M284.201,283.604
			c-4.664,4.48-12.969,4.462-17.614-0.043c-4.241-4.112-3.801-10.379,0.985-14.008c2.326-1.756,4.976-2.527,7.999-2.546
			c3.079,0.049,5.967,0.973,8.39,3.14C288.135,273.867,288.234,279.736,284.201,283.604z M362.262,238.126
			c1.689,0,3.059,1.371,3.059,3.06l0,0c0,1.689-1.369,3.06-3.059,3.06H134.603c-1.689,0-3.06-1.371-3.06-3.06l0,0
			c0-1.689,1.371-3.06,3.06-3.06H362.262z"/>
	</g>
</g>
</svg>