<?xml version="1.0" encoding="iso-8859-1"?>
<!-- Uploaded to: SVG Repo, www.svgrepo.com, Generator: SVG Repo Mixer Tools -->
<svg height="800px" width="800px" version="1.1" id="Capa_1" xmlns="http://www.w3.org/2000/svg" xmlns:xlink="http://www.w3.org/1999/xlink" 
	 viewBox="0 0 14.293 14.293" xml:space="preserve">
<g>
	<g>
		<path style="fill:#030104;" d="M5.823,9.66L4.636,5.259L3.434,9.66c-0.094,0.334-0.167,0.573-0.223,0.719
			c-0.055,0.145-0.151,0.275-0.288,0.391c-0.137,0.114-0.319,0.173-0.545,0.173c-0.184,0-0.335-0.035-0.454-0.104
			c-0.118-0.067-0.214-0.165-0.288-0.29s-0.134-0.273-0.18-0.445C1.409,9.931,1.367,9.773,1.331,9.625L0.11,4.682
			C0.037,4.396,0,4.177,0,4.026c0-0.19,0.067-0.351,0.2-0.48c0.134-0.13,0.299-0.195,0.496-0.195c0.271,0,0.452,0.087,0.545,0.26
			c0.094,0.173,0.176,0.425,0.246,0.756l0.961,4.286l1.076-4.011c0.08-0.307,0.152-0.541,0.215-0.701S3.906,3.642,4.05,3.525
			S4.389,3.35,4.636,3.35c0.25,0,0.445,0.061,0.583,0.183c0.139,0.122,0.235,0.254,0.288,0.398s0.125,0.381,0.215,0.711l1.086,4.011
			l0.961-4.286C7.816,4.144,7.86,3.97,7.902,3.843s0.113-0.241,0.216-0.34c0.102-0.101,0.249-0.15,0.442-0.15
			c0.194,0,0.358,0.064,0.493,0.193c0.136,0.128,0.203,0.29,0.203,0.483c0,0.137-0.037,0.355-0.11,0.656L7.924,9.626
			C7.841,9.96,7.772,10.204,7.716,10.36c-0.055,0.154-0.148,0.29-0.28,0.407c-0.132,0.116-0.317,0.176-0.558,0.176
			c-0.227,0-0.409-0.058-0.545-0.171c-0.137-0.113-0.232-0.241-0.286-0.383C5.994,10.247,5.919,10.003,5.823,9.66z"/>
		<path style="fill:#030104;" d="M10.839,4.748c-0.19,0-0.354-0.059-0.488-0.175c-0.136-0.117-0.202-0.282-0.202-0.496
			c0-0.193,0.068-0.353,0.207-0.478s0.3-0.188,0.483-0.188c0.177,0,0.333,0.057,0.471,0.17c0.137,0.114,0.205,0.279,0.205,0.496
			c0,0.21-0.066,0.375-0.2,0.494C11.181,4.689,11.023,4.748,10.839,4.748z M11.515,6.16v3.95c0,0.274-0.065,0.481-0.195,0.621
			c-0.13,0.141-0.296,0.211-0.496,0.211c-0.199,0-0.362-0.072-0.487-0.216s-0.188-0.349-0.188-0.616V6.2
			c0-0.27,0.063-0.474,0.188-0.611s0.288-0.205,0.487-0.205c0.2,0,0.366,0.068,0.496,0.205S11.515,5.917,11.515,6.16z"/>
		<path style="fill:#030104;" d="M13.617,4.748c-0.19,0-0.353-0.059-0.488-0.175c-0.135-0.117-0.202-0.282-0.202-0.496
			c0-0.193,0.069-0.353,0.208-0.478c0.138-0.125,0.299-0.188,0.482-0.188c0.177,0,0.334,0.057,0.471,0.17
			c0.137,0.114,0.205,0.279,0.205,0.496c0,0.21-0.066,0.375-0.2,0.494C13.96,4.689,13.801,4.748,13.617,4.748z M14.293,6.16v3.95
			c0,0.274-0.064,0.481-0.195,0.621c-0.13,0.141-0.295,0.211-0.495,0.211s-0.363-0.072-0.488-0.216s-0.188-0.349-0.188-0.616V6.2
			c0-0.27,0.063-0.474,0.188-0.611s0.288-0.205,0.488-0.205s0.365,0.068,0.495,0.205C14.229,5.726,14.293,5.917,14.293,6.16z"/>
	</g>
</g>
</svg>